<svg width="1367" height="276" viewBox="0 0 1367 276" fill="none" xmlns="http://www.w3.org/2000/svg">
<path d="M182.099 269.105H119.644L72.2585 184.544L50.8351 206.864V269.105H0V2.54043H50.8351V146.619L115.287 72.2209H179.375L110.203 147.89L182.099 269.105Z" fill="#003049" fill-opacity="0.58"/>
<path d="M262.571 71.3136V269.105H210.102V71.3136H262.571ZM262.571 0V47.7239H210.102V0H262.571Z" fill="#003049" fill-opacity="0.58"/>
<path d="M485.926 142.264H432.912C431.944 134.885 429.462 128.231 425.468 122.304C419.658 114.32 410.641 110.327 398.417 110.327C380.987 110.327 369.065 118.977 362.65 136.276C359.261 145.47 357.567 157.688 357.567 172.931C357.567 187.448 359.261 199.122 362.65 207.953C368.823 224.405 380.443 232.631 397.509 232.631C409.612 232.631 418.206 229.365 423.29 222.832C428.373 216.3 431.459 207.832 432.549 197.428H485.381C484.171 213.155 478.482 228.034 468.315 242.067C452.096 264.689 428.07 276 396.238 276C364.406 276 340.985 266.564 325.977 247.692C310.968 228.821 303.464 204.323 303.464 174.201C303.464 140.208 311.755 113.775 328.337 94.9034C344.919 76.0316 367.795 66.5957 396.964 66.5957C421.777 66.5957 442.05 72.1604 457.785 83.2899C473.641 94.4195 483.021 114.078 485.926 142.264Z" fill="#003049" fill-opacity="0.58"/>
<path d="M705.105 269.105H642.65L595.265 184.544L573.841 206.864V269.105H523.006V2.54043H573.841V146.619L638.293 72.2209H702.382L633.21 147.89L705.105 269.105Z" fill="#003049" fill-opacity="0.58"/>
<path d="M839.862 274.367C823.522 274.367 810.389 271.101 800.464 264.568C794.534 260.697 788.119 253.922 781.22 244.245V269.105H730.566V1.99606H782.127V97.0809C788.663 87.8869 795.865 80.8705 803.732 76.0316C813.052 69.9829 824.914 66.9586 839.317 66.9586C865.34 66.9586 885.674 76.334 900.319 95.0848C915.085 113.836 922.469 138.03 922.469 167.669C922.469 198.396 915.206 223.861 900.682 244.063C886.158 264.266 865.884 274.367 839.862 274.367ZM868.184 173.112C868.184 159.08 866.368 147.466 862.737 138.272C855.838 120.852 843.13 112.142 824.611 112.142C805.85 112.142 792.96 120.671 785.94 137.728C782.309 146.801 780.493 158.535 780.493 172.931C780.493 189.867 784.246 203.9 791.75 215.03C799.254 226.159 810.692 231.724 826.063 231.724C839.377 231.724 849.726 226.341 857.109 215.574C864.492 204.807 868.184 190.654 868.184 173.112Z" fill="#003049" fill-opacity="0.58"/>
<path d="M1126.58 96.355C1143.28 117.283 1151.63 142.022 1151.63 170.572C1151.63 199.606 1143.28 224.465 1126.58 245.152C1109.88 265.717 1084.52 276 1050.51 276C1016.5 276 991.14 265.717 974.437 245.152C957.734 224.465 949.382 199.606 949.382 170.572C949.382 142.022 957.734 117.283 974.437 96.355C991.14 75.4267 1016.5 64.9625 1050.51 64.9625C1084.52 64.9625 1109.88 75.4267 1126.58 96.355ZM1050.33 108.694C1035.2 108.694 1023.52 114.078 1015.29 124.844C1007.18 135.49 1003.12 150.732 1003.12 170.572C1003.12 190.412 1007.18 205.715 1015.29 216.481C1023.52 227.248 1035.2 232.631 1050.33 232.631C1065.46 232.631 1077.08 227.248 1085.18 216.481C1093.29 205.715 1097.35 190.412 1097.35 170.572C1097.35 150.732 1093.29 135.49 1085.18 124.844C1077.08 114.078 1065.46 108.694 1050.33 108.694Z" fill="#003049" fill-opacity="0.58"/>
<path d="M1367 269.105H1302.55L1268.42 209.767L1234.1 269.105H1171.28L1238.82 168.939L1174.19 71.6765H1237.55L1270.59 129.018L1302.91 71.6765H1364.46L1299.46 168.032L1367 269.105Z" fill="#003049" fill-opacity="0.58"/>
</svg>
